
<!-- Generator: Adobe Illustrator 18.0.0, SVG Export Plug-In . SVG Version: 6.00 Build 0)  -->
<!DOCTYPE svg>
<svg width="20" height="20" viewBox="0 0 20 20" xmlns="http://www.w3.org/2000/svg" xmlns:xlink="http://www.w3.org/1999/xlink">
<g id="Linkedin">
<path id="Vector" d="M19.5158 19.5209V19.5202H19.5206V12.5368C19.5206 9.12052 18.7851 6.48877 14.7912 6.48877C12.8711 6.48877 11.5827 7.54247 11.0567 8.54119H11.0012V6.80771H7.21436V19.5202H11.1576V13.2254C11.1576 11.568 11.4718 9.96524 13.5242 9.96524C15.5466 9.96524 15.5766 11.8568 15.5766 13.3315V19.5209H19.5158Z" style="fill: #2D2F2C;" fill-opacity="0.4"/>
<path id="Vector_2" d="M0.793945 6.80811H4.74194V19.5206H0.793945V6.80811Z" style="fill: #2D2F2C;" fill-opacity="0.4"/>
<path id="Vector_3" d="M2.76613 0.479492C1.50368 0.479492 0.479492 1.50368 0.479492 2.76612C0.479492 4.02855 1.50368 5.07416 2.76613 5.07416C4.02857 5.07416 5.05277 4.02855 5.05277 2.76612C5.05181 1.50368 4.02762 0.479492 2.76613 0.479492Z" style="fill: #2D2F2C;" fill-opacity="0.4"/>
</g>
</svg>
