<svg width="48" height="48" viewBox="0 0 48 48" fill="none" xmlns="http://www.w3.org/2000/svg">
<g clip-path="url(#clip0)">
<path d="M24 48C37.2548 48 48 37.2548 48 24C48 10.7452 37.2548 0 24 0C10.7452 0 0 10.7452 0 24C0 37.2548 10.7452 48 24 48Z" fill="#60BFE8"/>
<path d="M17.8677 34.8264L30.2084 47.1671C40.4292 44.4415 48.0002 35.1292 48.0002 23.9999C48.0002 23.7728 48.0002 23.5456 48.0002 23.3185L38.3093 14.3848L17.8677 34.8264Z" fill="#009FE3"/>
<path d="M24.6056 29.3755C25.6655 30.4354 25.6655 32.2524 24.6056 33.3124L22.41 35.508C21.3501 36.5679 19.533 36.5679 18.4731 35.508L8.85794 25.8171C7.798 24.7572 7.798 22.9401 8.85794 21.8802L11.0535 19.6846C12.1135 18.6247 13.9305 18.6247 14.9904 19.6846L24.6056 29.3755Z" fill="white"/>
<path d="M33.0092 12.6436C34.0691 11.5836 35.8862 11.5836 36.9461 12.6436L39.1417 14.8392C40.2016 15.8991 40.2016 17.7161 39.1417 18.7761L22.4855 35.3565C21.4256 36.4165 19.6086 36.4165 18.5486 35.3565L16.3531 33.1609C15.2931 32.101 15.2931 30.284 16.3531 29.224L33.0092 12.6436Z" fill="white"/>
</g>
<defs>
<clipPath id="clip0">
<rect width="48" height="48" fill="white"/>
</clipPath>
</defs>
</svg>
