<svg width="30" height="30" viewBox="0 0 30 30" fill="none" xmlns="http://www.w3.org/2000/svg">
<path d="M26.3792 27.4138C26.3792 25.9856 21.2846 24.8276 14.9999 24.8276C8.71523 24.8276 3.62061 25.9856 3.62061 27.4138C3.62061 28.8421 8.71523 30 14.9999 30C21.2846 30 26.3792 28.8421 26.3792 27.4138Z" fill="#ADABAC"/>
<path d="M13.9653 17.0688H16.0343V26.8964C16.0343 27.4677 15.5711 27.9309 14.9998 27.9309C14.4285 27.9309 13.9653 27.4677 13.9653 26.8964V17.0688Z" fill="#494342"/>
<path d="M23.7932 8.7931C23.7932 13.6493 19.8563 17.5862 15.0001 17.5862C10.1439 17.5862 6.20703 13.6493 6.20703 8.7931C6.20703 3.93689 10.1439 0 15.0001 0C19.8563 0 23.7932 3.93689 23.7932 8.7931Z" fill="#EE3446"/>
<path d="M12.9311 13.4482C12.6565 13.4487 12.3934 13.3396 12.1996 13.1451L9.09619 10.0417L10.559 8.57885L12.9311 10.9504L19.441 4.44092L20.9038 5.90374L13.6625 13.1451C13.4687 13.3396 13.2056 13.4487 12.9311 13.4482Z" fill="#AD2943"/>
</svg>
