<svg width="70" height="70" viewBox="0 0 70 70" fill="none" xmlns="http://www.w3.org/2000/svg">
<path d="M35 70C54.33 70 70 54.33 70 35C70 15.67 54.33 0 35 0C15.67 0 0 15.67 0 35C0 54.33 15.67 70 35 70Z" fill="#00C7FF"/>
<path d="M70 35C70 34.9949 69.9999 34.99 69.9999 34.9849L53.6111 18.5962L13.7402 51.4038L32.2272 69.8908C33.1421 69.9625 34.0666 70 35 70C54.33 70 70 54.33 70 35Z" fill="#0093C4"/>
<path d="M53.6112 18.5962H35.0001L33.3379 47.7687L53.6112 46.1065V18.5962Z" fill="#9ABADB"/>
<path d="M16.3887 18.5962V46.1065L34.9998 47.7687V18.5962H16.3887Z" fill="#D1E8FF"/>
<path d="M56.2599 46.1064H35.0001L33.3379 48.7551L35.0001 51.4038H56.2599V46.1064Z" fill="#D1E8FF"/>
<path d="M35 46.1069H13.7402V51.4044H35V46.1069Z" fill="#F5F5FF"/>
<path d="M51.1198 21.0874H35.0001L33.3379 32.3512L35.0001 43.615H51.1198V21.0874Z" fill="#294B6E"/>
<path d="M35 21.0874H18.8809V43.6145H35V21.0874Z" fill="#6283A3"/>
<path d="M28.5912 38.9514L21.9912 32.3514L28.5912 25.7515L30.3528 27.5131L25.5145 32.3514L30.3528 37.1898L28.5912 38.9514Z" fill="#F5F5FF"/>
<path d="M41.4091 38.9514L39.6475 37.1898L44.4858 32.3514L39.6475 27.5131L41.4091 25.7515L48.009 32.3514L41.4091 38.9514Z" fill="#D1E8FF"/>
<path d="M32.242 39.8323L34.6855 40.3184L37.7579 24.8732L35.3143 24.3871L32.242 39.8323Z" fill="#D1E8FF"/>
</svg>
